<?xml version="1.0" encoding="iso-8859-1"?>
<!-- Generator: Adobe Illustrator 19.0.0, SVG Export Plug-In . SVG Version: 6.00 Build 0)  -->
<svg version="1.1" id="Layer_1" xmlns="http://www.w3.org/2000/svg" xmlns:xlink="http://www.w3.org/1999/xlink" x="0px" y="0px"
	 viewBox="0 0 512.001 512.001" style="enable-background:new 0 0 512.001 512.001;" xml:space="preserve">
<path style="fill:#F9D18A;" d="M248.506,362.134c0,0,0,27.11,21.482,68.029c13.366,25.46,16.449,50.914,16.871,66.517l0,0
	c0,0,0,0.003,0,0.004c0.048,1.775,0.062,3.418,0.051,4.923c0.716,4.481,3.645,10.393,14.131,10.393h97.056h0.037
	c0.768-0.006,13.044-0.323,11.441-15.321c0-0.002,0-0.003,0-0.003c-3.663-27.322-7.545-88.154,15.403-157.818
	c36.307-110.222-110.49-190.014-110.49-190.014v137.944l-23.983-34.341c-11.026-15.784-32.759-19.641-48.545-8.619
	c-15.784,11.025-19.647,32.758-8.621,48.545l48.719,69.76H248.506z"/>
<path style="fill:#EA473B;" d="M233.339,292.374c-11.026-15.787-7.163-37.521,8.621-48.545c15.786-11.023,37.52-7.165,48.545,8.619
	l23.983,34.341V18.413C314.488,8.245,306.244,0,296.074,0H99.663C89.494,0,81.249,8.245,81.249,18.413V343.72
	c0,10.168,8.245,18.413,18.414,18.413h182.395L233.339,292.374z"/>
<path style="fill:#F75652;" d="M296.074,0H187.072c-17.664,37.733-27.551,79.832-27.551,124.249
	c0,97.897,47.955,184.582,121.643,237.886h0.894l-48.719-69.76c-11.026-15.787-7.163-37.521,8.621-48.545
	c15.786-11.023,37.52-7.165,48.545,8.619l23.983,34.341V18.413C314.488,8.245,306.244,0,296.074,0z"/>
<path style="fill:#D32420;" d="M110.436,343.72V18.413C110.436,8.245,118.681,0,128.851,0H99.663
	C89.494,0,81.249,8.245,81.249,18.413V343.72c0,10.168,8.245,18.413,18.414,18.413h29.188
	C118.681,362.134,110.436,353.889,110.436,343.72z"/>
<path style="fill:#EFB860;" d="M354.985,317.781l-40.496-57.987v26.972l27.835,39.857c2.441,3.499,7.258,4.353,10.753,1.909
	C356.573,326.091,357.426,321.277,354.985,317.781z"/>
<g>
</g>
<g>
</g>
<g>
</g>
<g>
</g>
<g>
</g>
<g>
</g>
<g>
</g>
<g>
</g>
<g>
</g>
<g>
</g>
<g>
</g>
<g>
</g>
<g>
</g>
<g>
</g>
<g>
</g>
</svg>
