<svg id="Capa_1" enable-background="new 0 0 497 497" height="512" viewBox="0 0 497 497" width="512" xmlns="http://www.w3.org/2000/svg"><g><path d="m297.431 287.461c-9.038 16.781-13.94 35.735-13.94 55.276v69.647c0 29.186-14.928 56.345-39.57 71.986l-19.896 12.63-61.532-239.534z" fill="#b46e5a"/><path d="m335.458 0h-157.965l-7 276.554 179.965-4.088v-257.466c0-8.25-6.75-15-15-15z" fill="#ffe07d"/><g fill="#ffc250"><path d="m262.317 259.066-25.354-38.512h-59.47v-220.554c-8.25 0-15 6.75-15 15v257.466c0 8.25 6.75 15 15 15h157.965c8.25 0 15-6.75 15-15h-87.145c2.021-4.084 1.818-9.125-.996-13.4z"/><circle cx="403.347" cy="189.135" r="8"/><path d="m403.347 166.135c-4.143 0-7.5-3.358-7.5-7.5v-106.413c0-4.142 3.357-7.5 7.5-7.5s7.5 3.358 7.5 7.5v106.413c0 4.142-3.357 7.5-7.5 7.5z"/></g><path d="m162.493 257.466h61.148c11.288 0 20.883 8.202 22.685 19.346 2.487 15.38 5.321 38.468 5.321 63.835 0 25.366-2.833 48.454-5.321 63.835-1.802 11.143-11.397 19.346-22.685 19.346h-10.215c14.604 21.906 18.186 43.806 10.599 73.173h-80.132l-49.961-224.668c-1.63-8.111 4.161-20.535 8.952-27.281l32.22-45.371c5.626-7.923 14.742-12.63 24.46-12.63h52.342c10.092 0 19.508 5.074 25.057 13.504l25.354 38.512c.924 1.404 1.552 2.892 1.927 4.4-7.769 11.162-28.568 10.475-36.849-1.302l-13.136-18.68h-38z" fill="#c38778"/><g fill="#b46e5a"><path d="m213.426 423.827-22.227-33.34c-3.323-4.984.25-11.66 6.24-11.66h14.45c4.394 0 7.848 3.757 7.475 8.136-1.38 16.24-5.938 36.864-5.938 36.864z"/><path d="m102.884 245.052-11.691 16.463c-4.79 6.746-6.582 15.17-4.952 23.281l42.652 212.204h15l-45.961-228.667c-1.63-8.112.161-16.536 4.952-23.281z"/><path d="m264.244 243.467c-12.911 6.448-28.568 2.475-36.849-9.302l-13.136-18.68h-44l-24.532 41.981h16.765l15.766-26.981h29l13.136 18.68c8.29 11.789 23.972 15.759 36.891 9.282 5.841-2.928 8.416-9.117 6.959-14.98z"/><path d="m227.812 333.735h-68.546c-4.142 0-7.5 3.358-7.5 7.5s3.358 7.5 7.5 7.5h68.656c11.288 0 20.883 8.202 22.685 19.346.584-7.927.964-16.378 1.023-25.118-5.091-5.638-13.543-9.228-23.818-9.228z"/><path d="m228.614 288.319h-84.766c-4.142 0-7.5 3.358-7.5 7.5s3.358 7.5 7.5 7.5h84.656c11.288 0 20.882 8.201 22.685 19.344-.508-10.235-1.392-19.804-2.405-28.301-5.041-3.764-11.996-6.043-20.17-6.043z"/></g></g></svg>